# xmcd
#
# Track frame offsets:
# 150
# 16403
# 42224
# 60643
# 80627
# 102898
# 131589
# 170195
# 210224
# 235476
# 266731
# 286600
# 313791
#
# Disc length: 4454 seconds
#
#
# Revision: 0
# Processed by: cddbd v1.5.1PL0 Copyright (c) Steve Scherf et al.
# Submitted via: FreeRIP 2.70 
#
DISCID=b411640d
DTITLE=Eric Clapton - One More Car, One More Rider (1)
DYEAR=2002
DGENRE=Blues
TTITLE0=Key To The Highway
TTITLE1=Reptile
TTITLE2=Get You On My Mind
TTITLE3=Tears In Heaven
TTITLE4=Bell Bottom Blues
TTITLE5=Change The World
TTITLE6=My Father's Eyes
TTITLE7=River Of Tears
TTITLE8=Going Down Slow
TTITLE9=She's Gone
TTITLE10=I Want A Little Girl
TTITLE11=Badge
TTITLE12=Hoochie Coochie Man
EXTD=
EXTT0=
EXTT1=
EXTT2=
EXTT3=
EXTT4=
EXTT5=
EXTT6=
EXTT7=
EXTT8=
EXTT9=
EXTT10=
EXTT11=
EXTT12=
PLAYORDER=
